<?xml version="1.0" encoding="UTF-8" standalone="no"?>
<!DOCTYPE svg PUBLIC "-//W3C//DTD SVG 1.1//EN"
 "http://www.w3.org/Graphics/SVG/1.1/DTD/svg11.dtd">
<!-- Generated by graphviz version 2.40.1 (20161225.0304)
 -->
<!-- Title: %3 Pages: 1 -->
<svg width="4958pt" height="44pt"
 viewBox="0.00 0.00 4958.00 44.00" xmlns="http://www.w3.org/2000/svg" xmlns:xlink="http://www.w3.org/1999/xlink">
<g id="graph0" class="graph" transform="scale(1 1) rotate(0) translate(4 40)">
<title>%3</title>
<polygon fill="#ffffff" stroke="transparent" points="-4,4 -4,-40 4954,-40 4954,4 -4,4"/>
<!-- &#45;4747078738535111863 -->
<g id="node1" class="node">
<title>&#45;4747078738535111863</title>
<polygon fill="none" stroke="#000000" points="54,-36 0,-36 0,0 54,0 54,-36"/>
<text text-anchor="middle" x="27" y="-14.3" font-family="Times,serif" font-size="14.00" fill="#000000">0</text>
</g>
<!-- &#45;4747078738534029338 -->
<g id="node2" class="node">
<title>&#45;4747078738534029338</title>
<polygon fill="none" stroke="#000000" points="126,-36 72,-36 72,0 126,0 126,-36"/>
<text text-anchor="middle" x="99" y="-14.3" font-family="Times,serif" font-size="14.00" fill="#000000">1</text>
</g>
<!-- &#45;4747078738537276913 -->
<g id="node3" class="node">
<title>&#45;4747078738537276913</title>
<polygon fill="none" stroke="#000000" points="198,-36 144,-36 144,0 198,0 198,-36"/>
<text text-anchor="middle" x="171" y="-14.3" font-family="Times,serif" font-size="14.00" fill="#000000">2</text>
</g>
<!-- &#45;4747078738536194388 -->
<g id="node4" class="node">
<title>&#45;4747078738536194388</title>
<polygon fill="none" stroke="#000000" points="270,-36 216,-36 216,0 270,0 270,-36"/>
<text text-anchor="middle" x="243" y="-14.3" font-family="Times,serif" font-size="14.00" fill="#000000">3</text>
</g>
<!-- &#45;4747078738539441963 -->
<g id="node5" class="node">
<title>&#45;4747078738539441963</title>
<polygon fill="none" stroke="#000000" points="342,-36 288,-36 288,0 342,0 342,-36"/>
<text text-anchor="middle" x="315" y="-14.3" font-family="Times,serif" font-size="14.00" fill="#000000">4</text>
</g>
<!-- &#45;4747078738538359438 -->
<g id="node6" class="node">
<title>&#45;4747078738538359438</title>
<polygon fill="none" stroke="#000000" points="414,-36 360,-36 360,0 414,0 414,-36"/>
<text text-anchor="middle" x="387" y="-14.3" font-family="Times,serif" font-size="14.00" fill="#000000">5</text>
</g>
<!-- &#45;4747078738541607013 -->
<g id="node7" class="node">
<title>&#45;4747078738541607013</title>
<polygon fill="none" stroke="#000000" points="486,-36 432,-36 432,0 486,0 486,-36"/>
<text text-anchor="middle" x="459" y="-14.3" font-family="Times,serif" font-size="14.00" fill="#000000">6</text>
</g>
<!-- &#45;4747078738540524488 -->
<g id="node8" class="node">
<title>&#45;4747078738540524488</title>
<polygon fill="none" stroke="#000000" points="558,-36 504,-36 504,0 558,0 558,-36"/>
<text text-anchor="middle" x="531" y="-14.3" font-family="Times,serif" font-size="14.00" fill="#000000">7</text>
</g>
<!-- &#45;4747078738526451663 -->
<g id="node9" class="node">
<title>&#45;4747078738526451663</title>
<polygon fill="none" stroke="#000000" points="630,-36 576,-36 576,0 630,0 630,-36"/>
<text text-anchor="middle" x="603" y="-14.3" font-family="Times,serif" font-size="14.00" fill="#000000">8</text>
</g>
<!-- &#45;4747078738525369138 -->
<g id="node10" class="node">
<title>&#45;4747078738525369138</title>
<polygon fill="none" stroke="#000000" points="702,-36 648,-36 648,0 702,0 702,-36"/>
<text text-anchor="middle" x="675" y="-14.3" font-family="Times,serif" font-size="14.00" fill="#000000">9</text>
</g>
<!-- &#45;4747078738528616713 -->
<g id="node11" class="node">
<title>&#45;4747078738528616713</title>
<polygon fill="none" stroke="#000000" points="774,-36 720,-36 720,0 774,0 774,-36"/>
<text text-anchor="middle" x="747" y="-14.3" font-family="Times,serif" font-size="14.00" fill="#000000">10</text>
</g>
<!-- &#45;4747078738527534188 -->
<g id="node12" class="node">
<title>&#45;4747078738527534188</title>
<polygon fill="none" stroke="#000000" points="846,-36 792,-36 792,0 846,0 846,-36"/>
<text text-anchor="middle" x="819" y="-14.3" font-family="Times,serif" font-size="14.00" fill="#000000">11</text>
</g>
<!-- &#45;4747078738530781763 -->
<g id="node13" class="node">
<title>&#45;4747078738530781763</title>
<polygon fill="none" stroke="#000000" points="918,-36 864,-36 864,0 918,0 918,-36"/>
<text text-anchor="middle" x="891" y="-14.3" font-family="Times,serif" font-size="14.00" fill="#000000">12</text>
</g>
<!-- &#45;4747078738529699238 -->
<g id="node14" class="node">
<title>&#45;4747078738529699238</title>
<polygon fill="none" stroke="#000000" points="990,-36 936,-36 936,0 990,0 990,-36"/>
<text text-anchor="middle" x="963" y="-14.3" font-family="Times,serif" font-size="14.00" fill="#000000">13</text>
</g>
<!-- &#45;4747078738532946813 -->
<g id="node15" class="node">
<title>&#45;4747078738532946813</title>
<polygon fill="none" stroke="#000000" points="1062,-36 1008,-36 1008,0 1062,0 1062,-36"/>
<text text-anchor="middle" x="1035" y="-14.3" font-family="Times,serif" font-size="14.00" fill="#000000">14</text>
</g>
<!-- &#45;4747078738531864288 -->
<g id="node16" class="node">
<title>&#45;4747078738531864288</title>
<polygon fill="none" stroke="#000000" points="1134,-36 1080,-36 1080,0 1134,0 1134,-36"/>
<text text-anchor="middle" x="1107" y="-14.3" font-family="Times,serif" font-size="14.00" fill="#000000">15</text>
</g>
<!-- &#45;4747078738517791463 -->
<g id="node17" class="node">
<title>&#45;4747078738517791463</title>
<polygon fill="none" stroke="#000000" points="1206,-36 1152,-36 1152,0 1206,0 1206,-36"/>
<text text-anchor="middle" x="1179" y="-14.3" font-family="Times,serif" font-size="14.00" fill="#000000">16</text>
</g>
<!-- &#45;4747078738516708938 -->
<g id="node18" class="node">
<title>&#45;4747078738516708938</title>
<polygon fill="none" stroke="#000000" points="1278,-36 1224,-36 1224,0 1278,0 1278,-36"/>
<text text-anchor="middle" x="1251" y="-14.3" font-family="Times,serif" font-size="14.00" fill="#000000">17</text>
</g>
<!-- &#45;4747078738519956513 -->
<g id="node19" class="node">
<title>&#45;4747078738519956513</title>
<polygon fill="none" stroke="#000000" points="1350,-36 1296,-36 1296,0 1350,0 1350,-36"/>
<text text-anchor="middle" x="1323" y="-14.3" font-family="Times,serif" font-size="14.00" fill="#000000">18</text>
</g>
<!-- &#45;4747078738518873988 -->
<g id="node20" class="node">
<title>&#45;4747078738518873988</title>
<polygon fill="none" stroke="#000000" points="1422,-36 1368,-36 1368,0 1422,0 1422,-36"/>
<text text-anchor="middle" x="1395" y="-14.3" font-family="Times,serif" font-size="14.00" fill="#000000">19</text>
</g>
<!-- &#45;4747078738522121563 -->
<g id="node21" class="node">
<title>&#45;4747078738522121563</title>
<polygon fill="none" stroke="#000000" points="1494,-36 1440,-36 1440,0 1494,0 1494,-36"/>
<text text-anchor="middle" x="1467" y="-14.3" font-family="Times,serif" font-size="14.00" fill="#000000">20</text>
</g>
<!-- &#45;4747078738521039038 -->
<g id="node22" class="node">
<title>&#45;4747078738521039038</title>
<polygon fill="none" stroke="#000000" points="1566,-36 1512,-36 1512,0 1566,0 1566,-36"/>
<text text-anchor="middle" x="1539" y="-14.3" font-family="Times,serif" font-size="14.00" fill="#000000">21</text>
</g>
<!-- &#45;4747078738524286613 -->
<g id="node23" class="node">
<title>&#45;4747078738524286613</title>
<polygon fill="none" stroke="#000000" points="1638,-36 1584,-36 1584,0 1638,0 1638,-36"/>
<text text-anchor="middle" x="1611" y="-14.3" font-family="Times,serif" font-size="14.00" fill="#000000">22</text>
</g>
<!-- &#45;4747078738523204088 -->
<g id="node24" class="node">
<title>&#45;4747078738523204088</title>
<polygon fill="none" stroke="#000000" points="1710,-36 1656,-36 1656,0 1710,0 1710,-36"/>
<text text-anchor="middle" x="1683" y="-14.3" font-family="Times,serif" font-size="14.00" fill="#000000">23</text>
</g>
<!-- &#45;4747078738509131263 -->
<g id="node25" class="node">
<title>&#45;4747078738509131263</title>
<polygon fill="none" stroke="#000000" points="1782,-36 1728,-36 1728,0 1782,0 1782,-36"/>
<text text-anchor="middle" x="1755" y="-14.3" font-family="Times,serif" font-size="14.00" fill="#000000">24</text>
</g>
<!-- &#45;4747078738508048738 -->
<g id="node26" class="node">
<title>&#45;4747078738508048738</title>
<polygon fill="none" stroke="#000000" points="1854,-36 1800,-36 1800,0 1854,0 1854,-36"/>
<text text-anchor="middle" x="1827" y="-14.3" font-family="Times,serif" font-size="14.00" fill="#000000">25</text>
</g>
<!-- &#45;4747078738511296313 -->
<g id="node27" class="node">
<title>&#45;4747078738511296313</title>
<polygon fill="none" stroke="#000000" points="1926,-36 1872,-36 1872,0 1926,0 1926,-36"/>
<text text-anchor="middle" x="1899" y="-14.3" font-family="Times,serif" font-size="14.00" fill="#000000">26</text>
</g>
<!-- &#45;4747078738510213788 -->
<g id="node28" class="node">
<title>&#45;4747078738510213788</title>
<polygon fill="none" stroke="#000000" points="1998,-36 1944,-36 1944,0 1998,0 1998,-36"/>
<text text-anchor="middle" x="1971" y="-14.3" font-family="Times,serif" font-size="14.00" fill="#000000">27</text>
</g>
<!-- &#45;4747078738513461363 -->
<g id="node29" class="node">
<title>&#45;4747078738513461363</title>
<polygon fill="none" stroke="#000000" points="2070,-36 2016,-36 2016,0 2070,0 2070,-36"/>
<text text-anchor="middle" x="2043" y="-14.3" font-family="Times,serif" font-size="14.00" fill="#000000">28</text>
</g>
<!-- &#45;4747078738512378838 -->
<g id="node30" class="node">
<title>&#45;4747078738512378838</title>
<polygon fill="none" stroke="#000000" points="2142,-36 2088,-36 2088,0 2142,0 2142,-36"/>
<text text-anchor="middle" x="2115" y="-14.3" font-family="Times,serif" font-size="14.00" fill="#000000">29</text>
</g>
<!-- &#45;4747078738515626413 -->
<g id="node31" class="node">
<title>&#45;4747078738515626413</title>
<polygon fill="none" stroke="#000000" points="2214,-36 2160,-36 2160,0 2214,0 2214,-36"/>
<text text-anchor="middle" x="2187" y="-14.3" font-family="Times,serif" font-size="14.00" fill="#000000">30</text>
</g>
<!-- &#45;4747078738514543888 -->
<g id="node32" class="node">
<title>&#45;4747078738514543888</title>
<polygon fill="none" stroke="#000000" points="2286,-36 2232,-36 2232,0 2286,0 2286,-36"/>
<text text-anchor="middle" x="2259" y="-14.3" font-family="Times,serif" font-size="14.00" fill="#000000">31</text>
</g>
<!-- &#45;4747078738569752663 -->
<g id="node33" class="node">
<title>&#45;4747078738569752663</title>
<polygon fill="none" stroke="#000000" points="2358,-36 2304,-36 2304,0 2358,0 2358,-36"/>
<text text-anchor="middle" x="2331" y="-14.3" font-family="Times,serif" font-size="14.00" fill="#000000">32</text>
</g>
<!-- &#45;4747078738568670138 -->
<g id="node34" class="node">
<title>&#45;4747078738568670138</title>
<polygon fill="none" stroke="#000000" points="2430,-36 2376,-36 2376,0 2430,0 2430,-36"/>
<text text-anchor="middle" x="2403" y="-14.3" font-family="Times,serif" font-size="14.00" fill="#000000">33</text>
</g>
<!-- &#45;4747078738571917713 -->
<g id="node35" class="node">
<title>&#45;4747078738571917713</title>
<polygon fill="none" stroke="#000000" points="2502,-36 2448,-36 2448,0 2502,0 2502,-36"/>
<text text-anchor="middle" x="2475" y="-14.3" font-family="Times,serif" font-size="14.00" fill="#000000">34</text>
</g>
<!-- &#45;4747078738570835188 -->
<g id="node36" class="node">
<title>&#45;4747078738570835188</title>
<polygon fill="none" stroke="#000000" points="2574,-36 2520,-36 2520,0 2574,0 2574,-36"/>
<text text-anchor="middle" x="2547" y="-14.3" font-family="Times,serif" font-size="14.00" fill="#000000">35</text>
</g>
<!-- &#45;4747078738574082763 -->
<g id="node37" class="node">
<title>&#45;4747078738574082763</title>
<polygon fill="none" stroke="#000000" points="2646,-36 2592,-36 2592,0 2646,0 2646,-36"/>
<text text-anchor="middle" x="2619" y="-14.3" font-family="Times,serif" font-size="14.00" fill="#000000">36</text>
</g>
<!-- &#45;4747078738573000238 -->
<g id="node38" class="node">
<title>&#45;4747078738573000238</title>
<polygon fill="none" stroke="#000000" points="2718,-36 2664,-36 2664,0 2718,0 2718,-36"/>
<text text-anchor="middle" x="2691" y="-14.3" font-family="Times,serif" font-size="14.00" fill="#000000">37</text>
</g>
<!-- &#45;4747078738576247813 -->
<g id="node39" class="node">
<title>&#45;4747078738576247813</title>
<polygon fill="none" stroke="#000000" points="2790,-36 2736,-36 2736,0 2790,0 2790,-36"/>
<text text-anchor="middle" x="2763" y="-14.3" font-family="Times,serif" font-size="14.00" fill="#000000">38</text>
</g>
<!-- &#45;4747078738575165288 -->
<g id="node40" class="node">
<title>&#45;4747078738575165288</title>
<polygon fill="none" stroke="#000000" points="2862,-36 2808,-36 2808,0 2862,0 2862,-36"/>
<text text-anchor="middle" x="2835" y="-14.3" font-family="Times,serif" font-size="14.00" fill="#000000">39</text>
</g>
<!-- &#45;4747078738561092463 -->
<g id="node41" class="node">
<title>&#45;4747078738561092463</title>
<polygon fill="none" stroke="#000000" points="2934,-36 2880,-36 2880,0 2934,0 2934,-36"/>
<text text-anchor="middle" x="2907" y="-14.3" font-family="Times,serif" font-size="14.00" fill="#000000">40</text>
</g>
<!-- &#45;4747078738560009938 -->
<g id="node42" class="node">
<title>&#45;4747078738560009938</title>
<polygon fill="none" stroke="#000000" points="3006,-36 2952,-36 2952,0 3006,0 3006,-36"/>
<text text-anchor="middle" x="2979" y="-14.3" font-family="Times,serif" font-size="14.00" fill="#000000">41</text>
</g>
<!-- &#45;4747078738563257513 -->
<g id="node43" class="node">
<title>&#45;4747078738563257513</title>
<polygon fill="none" stroke="#000000" points="3078,-36 3024,-36 3024,0 3078,0 3078,-36"/>
<text text-anchor="middle" x="3051" y="-14.3" font-family="Times,serif" font-size="14.00" fill="#000000">42</text>
</g>
<!-- &#45;4747078738562174988 -->
<g id="node44" class="node">
<title>&#45;4747078738562174988</title>
<polygon fill="none" stroke="#000000" points="3150,-36 3096,-36 3096,0 3150,0 3150,-36"/>
<text text-anchor="middle" x="3123" y="-14.3" font-family="Times,serif" font-size="14.00" fill="#000000">43</text>
</g>
<!-- &#45;4747078738565422563 -->
<g id="node45" class="node">
<title>&#45;4747078738565422563</title>
<polygon fill="none" stroke="#000000" points="3222,-36 3168,-36 3168,0 3222,0 3222,-36"/>
<text text-anchor="middle" x="3195" y="-14.3" font-family="Times,serif" font-size="14.00" fill="#000000">44</text>
</g>
<!-- &#45;4747078738564340038 -->
<g id="node46" class="node">
<title>&#45;4747078738564340038</title>
<polygon fill="none" stroke="#000000" points="3294,-36 3240,-36 3240,0 3294,0 3294,-36"/>
<text text-anchor="middle" x="3267" y="-14.3" font-family="Times,serif" font-size="14.00" fill="#000000">45</text>
</g>
<!-- &#45;4747078738567587613 -->
<g id="node47" class="node">
<title>&#45;4747078738567587613</title>
<polygon fill="none" stroke="#000000" points="3366,-36 3312,-36 3312,0 3366,0 3366,-36"/>
<text text-anchor="middle" x="3339" y="-14.3" font-family="Times,serif" font-size="14.00" fill="#000000">46</text>
</g>
<!-- &#45;4747078738566505088 -->
<g id="node48" class="node">
<title>&#45;4747078738566505088</title>
<polygon fill="none" stroke="#000000" points="3438,-36 3384,-36 3384,0 3438,0 3438,-36"/>
<text text-anchor="middle" x="3411" y="-14.3" font-family="Times,serif" font-size="14.00" fill="#000000">47</text>
</g>
<!-- &#45;4747078738552432263 -->
<g id="node49" class="node">
<title>&#45;4747078738552432263</title>
<polygon fill="none" stroke="#000000" points="3510,-36 3456,-36 3456,0 3510,0 3510,-36"/>
<text text-anchor="middle" x="3483" y="-14.3" font-family="Times,serif" font-size="14.00" fill="#000000">48</text>
</g>
<!-- &#45;4747078738551349738 -->
<g id="node50" class="node">
<title>&#45;4747078738551349738</title>
<polygon fill="none" stroke="#000000" points="3582,-36 3528,-36 3528,0 3582,0 3582,-36"/>
<text text-anchor="middle" x="3555" y="-14.3" font-family="Times,serif" font-size="14.00" fill="#000000">49</text>
</g>
<!-- &#45;4747078738554597313 -->
<g id="node51" class="node">
<title>&#45;4747078738554597313</title>
<polygon fill="none" stroke="#000000" points="3654,-36 3600,-36 3600,0 3654,0 3654,-36"/>
<text text-anchor="middle" x="3627" y="-14.3" font-family="Times,serif" font-size="14.00" fill="#000000">50</text>
</g>
<!-- &#45;4747078738553514788 -->
<g id="node52" class="node">
<title>&#45;4747078738553514788</title>
<polygon fill="none" stroke="#000000" points="3726,-36 3672,-36 3672,0 3726,0 3726,-36"/>
<text text-anchor="middle" x="3699" y="-14.3" font-family="Times,serif" font-size="14.00" fill="#000000">51</text>
</g>
<!-- &#45;4747078738556762363 -->
<g id="node53" class="node">
<title>&#45;4747078738556762363</title>
<polygon fill="none" stroke="#000000" points="3798,-36 3744,-36 3744,0 3798,0 3798,-36"/>
<text text-anchor="middle" x="3771" y="-14.3" font-family="Times,serif" font-size="14.00" fill="#000000">52</text>
</g>
<!-- &#45;4747078738555679838 -->
<g id="node54" class="node">
<title>&#45;4747078738555679838</title>
<polygon fill="none" stroke="#000000" points="3870,-36 3816,-36 3816,0 3870,0 3870,-36"/>
<text text-anchor="middle" x="3843" y="-14.3" font-family="Times,serif" font-size="14.00" fill="#000000">53</text>
</g>
<!-- &#45;4747078738558927413 -->
<g id="node55" class="node">
<title>&#45;4747078738558927413</title>
<polygon fill="none" stroke="#000000" points="3942,-36 3888,-36 3888,0 3942,0 3942,-36"/>
<text text-anchor="middle" x="3915" y="-14.3" font-family="Times,serif" font-size="14.00" fill="#000000">54</text>
</g>
<!-- &#45;4747078738557844888 -->
<g id="node56" class="node">
<title>&#45;4747078738557844888</title>
<polygon fill="none" stroke="#000000" points="4014,-36 3960,-36 3960,0 4014,0 4014,-36"/>
<text text-anchor="middle" x="3987" y="-14.3" font-family="Times,serif" font-size="14.00" fill="#000000">55</text>
</g>
<!-- &#45;4747078738543772063 -->
<g id="node57" class="node">
<title>&#45;4747078738543772063</title>
<polygon fill="none" stroke="#000000" points="4086,-36 4032,-36 4032,0 4086,0 4086,-36"/>
<text text-anchor="middle" x="4059" y="-14.3" font-family="Times,serif" font-size="14.00" fill="#000000">56</text>
</g>
<!-- &#45;4747078738542689538 -->
<g id="node58" class="node">
<title>&#45;4747078738542689538</title>
<polygon fill="none" stroke="#000000" points="4158,-36 4104,-36 4104,0 4158,0 4158,-36"/>
<text text-anchor="middle" x="4131" y="-14.3" font-family="Times,serif" font-size="14.00" fill="#000000">57</text>
</g>
<!-- &#45;4747078738545937113 -->
<g id="node59" class="node">
<title>&#45;4747078738545937113</title>
<polygon fill="none" stroke="#000000" points="4230,-36 4176,-36 4176,0 4230,0 4230,-36"/>
<text text-anchor="middle" x="4203" y="-14.3" font-family="Times,serif" font-size="14.00" fill="#000000">58</text>
</g>
<!-- &#45;4747078738544854588 -->
<g id="node60" class="node">
<title>&#45;4747078738544854588</title>
<polygon fill="none" stroke="#000000" points="4302,-36 4248,-36 4248,0 4302,0 4302,-36"/>
<text text-anchor="middle" x="4275" y="-14.3" font-family="Times,serif" font-size="14.00" fill="#000000">59</text>
</g>
<!-- &#45;4747078738548102163 -->
<g id="node61" class="node">
<title>&#45;4747078738548102163</title>
<polygon fill="none" stroke="#000000" points="4374,-36 4320,-36 4320,0 4374,0 4374,-36"/>
<text text-anchor="middle" x="4347" y="-14.3" font-family="Times,serif" font-size="14.00" fill="#000000">60</text>
</g>
<!-- &#45;4747078738547019638 -->
<g id="node62" class="node">
<title>&#45;4747078738547019638</title>
<polygon fill="none" stroke="#000000" points="4446,-36 4392,-36 4392,0 4446,0 4446,-36"/>
<text text-anchor="middle" x="4419" y="-14.3" font-family="Times,serif" font-size="14.00" fill="#000000">61</text>
</g>
<!-- &#45;4747078738550267213 -->
<g id="node63" class="node">
<title>&#45;4747078738550267213</title>
<polygon fill="none" stroke="#000000" points="4518,-36 4464,-36 4464,0 4518,0 4518,-36"/>
<text text-anchor="middle" x="4491" y="-14.3" font-family="Times,serif" font-size="14.00" fill="#000000">62</text>
</g>
<!-- &#45;4747078738549184688 -->
<g id="node64" class="node">
<title>&#45;4747078738549184688</title>
<polygon fill="none" stroke="#000000" points="4590,-36 4536,-36 4536,0 4590,0 4590,-36"/>
<text text-anchor="middle" x="4563" y="-14.3" font-family="Times,serif" font-size="14.00" fill="#000000">63</text>
</g>
<!-- &#45;4747078738465830263 -->
<g id="node65" class="node">
<title>&#45;4747078738465830263</title>
<polygon fill="none" stroke="#000000" points="4662,-36 4608,-36 4608,0 4662,0 4662,-36"/>
<text text-anchor="middle" x="4635" y="-14.3" font-family="Times,serif" font-size="14.00" fill="#000000">64</text>
</g>
<!-- &#45;4747078738464747738 -->
<g id="node66" class="node">
<title>&#45;4747078738464747738</title>
<polygon fill="none" stroke="#000000" points="4734,-36 4680,-36 4680,0 4734,0 4734,-36"/>
<text text-anchor="middle" x="4707" y="-14.3" font-family="Times,serif" font-size="14.00" fill="#000000">65</text>
</g>
<!-- &#45;4747078738467995313 -->
<g id="node67" class="node">
<title>&#45;4747078738467995313</title>
<polygon fill="none" stroke="#000000" points="4806,-36 4752,-36 4752,0 4806,0 4806,-36"/>
<text text-anchor="middle" x="4779" y="-14.3" font-family="Times,serif" font-size="14.00" fill="#000000">66</text>
</g>
<!-- &#45;4747078738466912788 -->
<g id="node68" class="node">
<title>&#45;4747078738466912788</title>
<polygon fill="none" stroke="#000000" points="4878,-36 4824,-36 4824,0 4878,0 4878,-36"/>
<text text-anchor="middle" x="4851" y="-14.3" font-family="Times,serif" font-size="14.00" fill="#000000">67</text>
</g>
<!-- &#45;4747078738470160363 -->
<g id="node69" class="node">
<title>&#45;4747078738470160363</title>
<polygon fill="none" stroke="#000000" points="4950,-36 4896,-36 4896,0 4950,0 4950,-36"/>
<text text-anchor="middle" x="4923" y="-14.3" font-family="Times,serif" font-size="14.00" fill="#000000">68</text>
</g>
</g>
</svg>
